PathFileType	4	(X/Y/Z)	Patient4_TMGait_0pt5_02_right_40.trc.trc
DataRate	CameraRate	NumFrames	NumMarkers	Units	OrigDataRate	OrigDataStartFrame	OrigNumFrames
78.212290502793	78.212290502793	4	33	mm	78.212290502793	53	       141
Frame#	Time	Sacral			L.Shoulder			Chest			R.Shoulder			Neck			R.ASIS			L.ASIS			R.Thigh.Superior			R.Thigh.Lateral			R.Thigh.Inferior			R.Patella			L.Thigh.Superior			L.Thigh.Lateral			L.Thigh.Inferior			L.Patella			L.Shank.Superior			L.Shank.Lateral			L.Shank.Inferior			R.Shank.Superior			R.Shank.Lateral			R.Shank.Inferior			R.Heel			R.Midfoot.Superior			R.Midfoot.Lateral			R.Toe			L.Heel			L.Midfoot.Lateral			L.Midfoot.Superior			L.Toe			L.Elbow			L.Wrist			R.Elbow			R.Wrist			
		X1	Y1	Z1	X2	Y2	Z2	X3	Y3	Z3	X4	Y4	Z4	X5	Y5	Z5	X6	Y6	Z6	X7	Y7	Z7	X8	Y8	Z8	X9	Y9	Z9	X10	Y10	Z10	X11	Y11	Z11	X12	Y12	Z12	X13	Y13	Z13	X14	Y14	Z14	X15	Y15	Z15	X16	Y16	Z16	X17	Y17	Z17	X18	Y18	Z18	X19	Y19	Z19	X20	Y20	Z20	X21	Y21	Z21	X22	Y22	Z22	X23	Y23	Z23	X24	Y24	Z24	X25	Y25	Z25	X26	Y26	Z26	X27	Y27	Z27	X28	Y28	Z28	X29	Y29	Z29	X30	Y30	Z30	X31	Y31	Z31	X32	Y32	Z32	X33	Y33	Z33	

53	52.934857142857	696.433921474170	1015.025177499392	515.174726208870	885.591115231264	1432.514936172905	324.372295450027	992.911518909035	1357.404365019057	480.012292022956	924.107660645339	1436.509781623043	658.640863277721	898.917768348945	1494.545898726428	474.669827058821	926.609033549373	940.597668066228	620.131336064253	898.624322601505	963.501208676196	347.364237464145	961.435577463649	738.632139318415	584.176983599442	879.726375245786	633.416223748956	645.569456688581	948.387151029728	579.946415003814	558.674358862038	946.094411734864	491.323479789018	561.882528312113	985.249680088447	787.271661034714	383.125769168214	947.002606349073	659.413370400030	307.135341012873	1047.885218686877	600.367367491112	374.074335045473	1068.254561760008	516.739014554508	369.230273759265	1020.334549000050	443.135379362349	357.153886109920	901.785260509015	361.634301866194	302.034954953008	927.847895181248	234.165694944284	355.954001517315	917.280511065398	403.632980202125	570.424389089952	848.340934382007	300.454840028011	634.605765377131	884.414150656155	206.164534847653	567.490943888904	746.150518097050	42.817809201402	541.510709879768	918.307286625034	97.003638474914	571.629376513044	831.596787447214	36.648794501191	613.828153446180	1039.478384629946	43.727489883828	596.532461812967	767.292887414658	110.665555958751	386.675666962163	835.962125486864	94.404212573765	304.340608963475	932.429427404282	131.959568543614	329.587591498522	1040.560583269167	54.101218274185	293.735549129128	831.911797537563	1075.400829241395	220.677655295407	893.197426098282	821.488068873530	219.278727150286	951.747552660778	1095.250707888650	785.362823645034	1176.160073374964	984.128142174480	725.454319907164	
54	52.947642857143	694.805482835324	1015.812610669533	516.363782518951	884.366055096180	1432.241160323846	324.167914350130	992.578983330780	1356.965724925077	479.087545569380	925.524138360394	1436.858005175201	658.054665222797	898.897396488593	1494.501250742896	474.217267778626	924.983619045977	940.385260366656	620.186574871027	896.278195490850	963.939106830805	347.481199455392	958.133420650693	738.100987405005	583.753446615980	876.060212991081	633.449352336604	645.890571858693	943.631170166557	579.570043481435	558.600587072177	940.733201085722	491.009499403011	562.013459476779	983.131658802294	788.686971620934	383.611633905465	945.712973275985	660.743292362440	306.992359247520	1046.014595180730	602.087446527274	374.919506332771	1068.114461409698	520.472148445910	369.849339087737	1024.275846327131	446.220689522502	356.927736681531	912.095075183382	357.400052166243	300.329041533576	946.097874822747	231.510732302508	354.405181153882	911.767137114609	403.310583070029	570.523072226785	842.589946314488	300.294814611318	634.682016674756	878.333581782663	205.971775774656	567.525327234892	739.690808066476	42.770854223695	541.508693083818	911.839188995285	96.969053204605	571.618171553441	825.134974213198	36.639225165694	613.865283909191	1032.993905568678	43.740601660583	596.548252853510	794.129838608816	97.145280808028	383.620695337424	864.524815818451	85.820831764457	301.885118082718	957.935028080096	129.777114579092	327.995175000617	1071.451033481365	59.644329403197	293.164242127013	822.909580262613	1075.891876272043	222.288752784250	871.270679017632	819.569937460067	220.758446364677	962.135596862565	1097.654645889771	785.252354776363	1192.751662568423	1005.535529561968	720.115776293402	
55	52.960428571429	693.286808872315	1016.483283907435	517.376025227428	883.254533991503	1431.929876036741	323.872596427701	992.271391323510	1356.426256542219	478.098657015527	926.860363933017	1437.051586473584	657.367891226959	898.873137135468	1494.361548079731	473.706041196531	923.403580958250	940.103772471736	620.190495103721	894.137280354665	964.160637766733	347.492628858019	955.011817869312	737.532952342554	583.373713054045	872.587082931216	633.407154967876	646.154927641056	939.152779679275	579.155796222667	558.520671930013	935.668928223557	490.634434594873	562.124739482402	980.740537155419	789.503670500246	384.010479285679	943.937579809460	661.658967778237	306.585357590958	1043.497748247308	603.186147025507	375.625024388231	1067.263777118700	523.771958143008	370.354219592979	1027.547423667071	449.141791184791	356.687925021880	922.332532649156	353.326888982615	298.481946388920	963.979249894440	229.569028258208	353.063356307407	906.489901074490	402.926645366880	570.590991481454	837.008888369100	300.102198821354	634.727672766699	872.339046385551	205.725146227333	567.534567760762	733.233885334980	42.730490541487	541.504696844952	905.369853148334	96.930360408184	571.596438585205	818.675381445600	36.631291518043	613.899586645780	1026.513851737172	43.739040616392	596.560461031357	821.119647459269	85.005406325864	380.626678389667	893.220292043354	78.470576844027	299.761622948593	983.128651192589	128.612414805700	326.879804150653	1101.595265856193	66.294862483693	293.648306205023	813.984302484621	1076.633412414087	223.657642273328	850.104161997771	818.655956553881	222.378123130821	972.558528949723	1100.139063141335	784.714920116823	1207.660641572945	1027.396029948048	714.344222329961	
56	52.973214285714	691.888705170263	1017.032138067985	518.216773046360	882.255541160397	1431.588193407150	323.482545247299	991.979439813159	1355.809920220919	477.055836579572	928.081405457995	1437.110501923094	656.582530820457	898.840453201636	1494.139453613552	473.128889815519	921.899244837266	939.759730585332	620.131780108311	892.184862066527	964.189172440283	347.402268004351	952.097344677117	736.923761351561	583.034546986978	869.326771664721	633.280942770814	646.345307595720	934.979613789586	578.689383909007	558.416042307615	930.925250995016	490.190196222645	562.187523629550	978.124892629982	789.769430110051	384.307674624811	941.802792635749	662.224690531608	305.895524996273	1040.504520587770	603.755124812208	376.133382307735	1065.849947620296	526.665250150803	370.699986341762	1030.211002820139	451.906301243507	356.417976750479	932.360033812242	349.581174091125	296.564551696880	981.180218140294	228.445604762579	351.978719253262	901.469685280778	402.484549344819	570.611383626964	831.616322021171	299.885904570389	634.732595789614	866.440517730179	205.428993527822	567.509896208313	726.780389120994	42.699528716749	541.502203476728	898.903029871149	96.887003083497	571.563650603657	812.219420079161	36.625705444934	613.931140231285	1020.040844717272	43.721487510835	596.570534576447	847.692862303174	74.592980643046	377.849202097449	921.454710315416	72.547780658872	298.091763156691	1007.530349267923	128.522088842034	326.286457924972	1130.413988009035	73.895173414338	295.186477340640	805.210490032380	1077.621304536312	224.783544313352	829.872975753210	818.624245057218	224.130508464983	982.988189839655	1102.705860323030	783.732185289618	1220.847321229537	1049.428570974766	708.216801885999	
